<?xml version="1.0" standalone="no"?>
<!DOCTYPE svg PUBLIC "-//W3C//DTD SVG 20010904//EN"
 "http://www.w3.org/TR/2001/REC-SVG-20010904/DTD/svg10.dtd">
<svg version="1.0" xmlns="http://www.w3.org/2000/svg"
 width="335.000000pt" height="335.000000pt" viewBox="0 0 335.000000 335.000000"
 preserveAspectRatio="xMidYMid meet">
<metadata>
Created by potrace 1.11, written by Peter Selinger 2001-2013
</metadata>
<g transform="translate(0.000000,335.000000) scale(0.100000,-0.100000)"
fill="#000000" stroke="none">
<path d="M0 1675 l0 -1675 1675 0 1675 0 0 1675 0 1675 -1675 0 -1675 0 0
-1675z m421 778 c14 -14 260 -523 329 -681 29 -67 54 -121 55 -120 2 2 33 71
69 153 142 321 302 640 327 652 30 16 258 17 311 3 79 -22 61 15 395 -822 113
-285 209 -518 212 -518 4 0 125 286 271 636 145 350 273 647 284 661 32 42 75
53 196 53 110 0 112 0 141 -29 l29 -29 0 -811 c0 -605 -3 -812 -12 -817 -20
-13 -152 -16 -180 -5 l-28 10 -2 742 -3 742 -295 -729 c-180 -445 -304 -738
-318 -753 -21 -21 -30 -23 -102 -19 -44 1 -84 8 -90 14 -6 6 -137 336 -291
735 -154 398 -287 734 -295 747 -12 18 -23 22 -46 20 -31 -3 -37 -14 -249
-428 l-218 -425 0 -323 -1 -322 -27 -11 c-29 -11 -161 -8 -181 5 -9 5 -12 93
-12 321 l0 315 -250 500 c-137 275 -250 507 -250 515 0 8 8 19 18 25 22 14
198 8 213 -7z"/>
</g>
</svg>
